<svg width="128" height="33" viewBox="0 0 128 33" fill="none" xmlns="http://www.w3.org/2000/svg"><path fill-rule="evenodd" clip-rule="evenodd" d="M7.857 2C2.103 2 0 4.104 0 9.854v12.292C0 27.894 2.104 30 7.857 30H20.14c5.752 0 7.86-2.104 7.86-7.854V9.854C28 4.106 25.896 2 20.143 2H7.857z" fill="#DA0025"></path><path fill-rule="evenodd" clip-rule="evenodd" d="M12.213 18.24h1.124l-.564-1.311-.56 1.311zm-.277.661l-.333.763h-.759L12.458 16h.657l1.607 3.664h-.778l-.33-.763h-1.678zm12.22.76h.733v-3.66h-.734v3.66zm-2.923-1.572h1.353v-.668h-1.353v-.75h1.965v-.668H20.5v3.661h2.768v-.668h-2.035v-.907zm-2.916.431L17.486 16h-.607l-.833 2.52-.809-2.518h-.792l1.278 3.664h.616l.833-2.407.833 2.408h.622l1.274-3.665h-.77l-.812 2.52-.002-.002zM9.723 18.1c0 .595-.296.914-.833.914-.54 0-.838-.328-.838-.94V16h-.744v2.1c0 1.03.574 1.623 1.572 1.623 1.008 0 1.586-.602 1.586-1.653V16h-.742v2.1l-.001-.001zM5.533 16h.743v3.666h-.742v-1.489h-1.68v1.489h-.742V16h.742v1.479h1.68V16zM14 11.334a4.672 4.672 0 01-4.667-4.667h.658A4.013 4.013 0 0014 10.675a4.013 4.013 0 004.008-4.009h.658A4.672 4.672 0 0114 11.335z" fill="#fff"></path><path d="M40.12 2.12c-2.235 0-3.631 1.542-3.631 4.007 0 2.466 1.396 4.002 3.63 4.002 2.23 0 3.632-1.536 3.632-4.002 0-2.465-1.402-4.006-3.631-4.006zm0 1.059c1.471 0 2.395 1.138 2.395 2.948 0 1.805-.924 2.944-2.395 2.944-1.472 0-2.401-1.139-2.401-2.944 0-1.81.929-2.948 2.4-2.948zm9.04 1.17h-4.7v.92h1.772V10h1.155V5.268h1.772V4.35zM52.3 7.004l2.503-2.653h-1.386l-2.212 2.417h-.043V4.35h-1.155V10h1.155V7.395h.043L53.446 10H54.9l-2.6-2.997zm6.274-2.745c-.817 0-1.467.414-1.8 1.064h-.021V4.35H55.63v7.52h1.16v-2.8h.027c.323.63.967 1.027 1.778 1.027 1.418 0 2.358-1.134 2.358-2.922 0-1.789-.945-2.917-2.38-2.917zm-.306 4.856c-.892 0-1.483-.763-1.483-1.94 0-1.165.596-1.938 1.483-1.938.918 0 1.493.757 1.493 1.939 0 1.187-.575 1.939-1.493 1.939zm6.117.993c1.617 0 2.68-1.111 2.68-2.932 0-1.816-1.068-2.927-2.68-2.927-1.611 0-2.68 1.111-2.68 2.927 0 1.82 1.063 2.932 2.68 2.932zm0-.956c-.907 0-1.498-.72-1.498-1.976 0-1.252.59-1.971 1.498-1.971s1.499.72 1.499 1.97c0 1.258-.586 1.977-1.499 1.977zM69.21 10l2.61-3.97h.043V10h1.144V4.35h-1.144l-2.61 3.958h-.043V4.35h-1.145V10h1.145zm-.376-8.132c0 1.015.72 1.703 1.783 1.703 1.069 0 1.788-.688 1.788-1.703h-.784c-.005.607-.392 1.069-1.004 1.069-.607 0-.994-.462-1-1.069h-.784zM78.55 4.35h-4.7v.918h1.773V10h1.154V5.268h1.773V4.35zm3.11.832c.81 0 1.359.607 1.385 1.472H80.22c.06-.854.629-1.472 1.44-1.472zm1.38 3.158c-.156.494-.645.827-1.305.827-.93 0-1.52-.65-1.52-1.632v-.07h3.99v-.398c0-1.713-.977-2.82-2.545-2.82-1.596 0-2.616 1.182-2.616 2.955 0 1.783 1.004 2.905 2.664 2.905 1.294 0 2.272-.735 2.433-1.767H83.04zm6.725-3.147c.564 0 .87.263.87.73 0 .5-.328.752-.983.752h-1.074V5.193h1.187zm-.038 2.293c.763 0 1.139.28 1.139.838 0 .543-.355.833-1.01.833h-1.278v-1.67h1.15zM87.434 10h2.6c1.224 0 1.986-.634 1.986-1.627 0-.71-.483-1.225-1.213-1.322v-.043c.542-.102.961-.633.961-1.219 0-.892-.666-1.44-1.767-1.44h-2.567V10zM44.404 29h2.39l-4.5-12.683h-2.557L35.237 29h2.338l1.081-3.278h4.667L44.404 29zM40.96 18.559h.061l1.767 5.414h-3.603l1.775-5.414zm12.094.966c-1.354 0-2.408.686-2.936 1.767h-.044v-1.608h-2.136v12.383h2.189v-4.614h.044c.51 1.046 1.564 1.696 2.918 1.696 2.338 0 3.832-1.837 3.832-4.807 0-2.98-1.503-4.817-3.867-4.817zm-.668 7.831c-1.362 0-2.268-1.186-2.277-3.014.01-1.81.915-3.015 2.277-3.015 1.415 0 2.294 1.178 2.294 3.015 0 1.846-.88 3.014-2.294 3.014zm11.056-7.83c-1.353 0-2.408.685-2.935 1.766h-.044v-1.608h-2.136v12.383h2.189v-4.614h.044c.51 1.046 1.564 1.696 2.918 1.696 2.337 0 3.832-1.837 3.832-4.807 0-2.98-1.503-4.817-3.868-4.817zm-.668 7.83c-1.362 0-2.267-1.186-2.276-3.014.009-1.81.914-3.015 2.276-3.015 1.416 0 2.294 1.178 2.294 3.015 0 1.846-.878 3.014-2.294 3.014zM83.64 23.71v-1.354h-5.274v1.732h3.059l-.009.21c-.035 1.776-1.362 2.99-3.278 2.99-2.285 0-3.71-1.785-3.71-4.703 0-2.857 1.363-4.553 3.648-4.553 1.556 0 2.734.862 3.164 2.32h2.303c-.413-2.54-2.593-4.245-5.476-4.245-3.665 0-5.959 2.479-5.959 6.504 0 4.087 2.303 6.6 6.003 6.6 3.472 0 5.529-2.065 5.529-5.501zm4.983 3.788c-.95 0-1.582-.483-1.582-1.248 0-.738.606-1.213 1.661-1.283l2.154-.132v.712c0 1.125-.994 1.951-2.233 1.951zm-.66 1.652c1.196 0 2.365-.624 2.901-1.634h.044V29h2.11v-6.416c0-1.872-1.503-3.094-3.815-3.094-2.373 0-3.858 1.248-3.955 2.989h2.03c.141-.774.8-1.275 1.837-1.275 1.081 0 1.74.563 1.74 1.538v.668l-2.46.14c-2.268.141-3.542 1.135-3.542 2.787 0 1.679 1.31 2.812 3.11 2.812zM94.846 29h2.188V16.317h-2.188V29zm4.113 0h2.188V16.317h-2.188V29zm8.068-7.814c1.257 0 2.101.923 2.145 2.242h-4.351c.088-1.301.976-2.242 2.206-2.242zm2.154 5.028c-.238.773-1.011 1.283-2.031 1.283-1.432 0-2.346-1.002-2.346-2.496v-.132h6.512v-.712c0-2.83-1.652-4.667-4.297-4.667-2.69 0-4.395 1.943-4.395 4.887 0 2.97 1.688 4.808 4.482 4.808 2.207 0 3.841-1.213 4.123-2.971h-2.048zM112.73 29h2.189v-5.423c0-1.31.747-2.11 1.986-2.11.369 0 .703.053.888.124v-1.978a3.104 3.104 0 00-.686-.088c-1.098 0-1.916.65-2.232 1.785h-.044v-1.626h-2.101V29zm7.225 3.463c2.127 0 3.155-.782 3.955-3.094l3.366-9.685h-2.302l-2.198 7.453h-.035l-2.197-7.453h-2.391l3.314 9.325c.009.026-.123.492-.123.518-.246.862-.712 1.204-1.617 1.204-.132 0-.519-.008-.633-.035v1.732c.114.026.738.035.861.035z" fill="#fff"></path></svg>