<svg width="112" height="34" viewBox="0 0 112 34" fill="none" xmlns="http://www.w3.org/2000/svg"><path fill-rule="evenodd" clip-rule="evenodd" d="M25.261 21.605c-.69 1.533-1.02 2.217-1.91 3.572-1.24 1.892-2.988 4.247-5.154 4.267-1.925.018-2.42-1.255-5.031-1.24-2.612.014-3.158 1.262-5.083 1.245-2.166-.02-3.823-2.148-5.063-4.039C-.45 20.12-.811 13.914 1.328 10.614 2.848 8.268 5.246 6.896 7.5 6.896c2.296 0 3.74 1.261 5.637 1.261 1.842 0 2.964-1.263 5.618-1.263 2.006 0 4.132 1.094 5.647 2.987-4.963 2.724-4.157 9.825.858 11.724" fill="#fff"></path><path fill-rule="evenodd" clip-rule="evenodd" d="M16.742 4.781C17.706 3.541 18.44 1.79 18.174 0 16.6.109 14.755 1.113 13.68 2.422c-.976 1.188-1.783 2.95-1.469 4.663 1.72.054 3.5-.975 4.532-2.304z" fill="#fff"></path><path d="M35.637 8.003l.236-3.717h2.777v5.672h-3.544v-.043c.37-.435.477-1.031.531-1.912zM34.257 11h5.462v1.53h1.101V9.959h-.967V3.25h-5.048l-.285 4.7c-.06 1.025-.252 1.686-.806 2.008h-.564v2.573h1.107V11zm9.91.107c1.616 0 2.68-1.111 2.68-2.932 0-1.816-1.07-2.927-2.68-2.927-1.612 0-2.68 1.111-2.68 2.927 0 1.82 1.063 2.932 2.68 2.932zm0-.956c-.908 0-1.499-.72-1.499-1.976 0-1.252.59-1.971 1.498-1.971s1.499.72 1.499 1.97c0 1.258-.585 1.977-1.498 1.977zm8.502-2.991c-.161-1.042-1.031-1.912-2.428-1.912-1.606 0-2.648 1.154-2.648 2.927 0 1.81 1.042 2.932 2.659 2.932 1.332 0 2.261-.773 2.428-1.906h-1.117c-.162.59-.613.934-1.3.934-.903 0-1.493-.736-1.493-1.96 0-1.193.585-1.96 1.482-1.96.72 0 1.15.424 1.3.945h1.117zm5.124-1.81h-4.7v.918h1.773V11h1.154V6.268h1.773V5.35zm1.413 7.755c1.176 0 1.73-.44 2.212-1.81L63.54 5.35h-1.225l-1.434 4.597h-.016L59.431 5.35h-1.257l2.041 5.655c0 .006-.102.339-.102.35-.177.58-.462.805-1.004.805-.097 0-.29 0-.376-.021v.94c.086.016.381.026.473.026zM67.97 11h1.16V5.35h-4.817V11h1.154V6.268h2.503V11zm6.123 0h1.155V5.35h-1.155v2.277h-2.556V5.35h-1.155V11h1.155V8.54h2.556V11zm4.845.107c1.617 0 2.68-1.111 2.68-2.932 0-1.816-1.069-2.927-2.68-2.927-1.611 0-2.68 1.111-2.68 2.927 0 1.82 1.063 2.932 2.68 2.932zm0-.956c-.908 0-1.499-.72-1.499-1.976 0-1.252.591-1.971 1.499-1.971.908 0 1.499.72 1.499 1.97 0 1.258-.586 1.977-1.499 1.977zm8.245-3.958c.564 0 .87.263.87.73 0 .5-.328.752-.983.752h-1.074V6.193h1.187zm-.038 2.293c.763 0 1.139.28 1.139.838 0 .543-.355.833-1.01.833h-1.278v-1.67h1.149zM84.853 11h2.6c1.224 0 1.986-.634 1.986-1.627 0-.71-.483-1.225-1.213-1.322v-.043c.542-.102.961-.633.961-1.219 0-.892-.666-1.44-1.767-1.44h-2.567V11zM41.404 30h2.39l-4.5-12.683h-2.557L32.237 30h2.338l1.081-3.278h4.667L41.404 30zM37.96 19.559h.061l1.767 5.414h-3.603l1.775-5.414zm12.094.966c-1.354 0-2.408.686-2.936 1.767h-.044v-1.608h-2.136v12.383h2.189v-4.614h.044c.51 1.046 1.564 1.696 2.918 1.696 2.338 0 3.832-1.837 3.832-4.807 0-2.98-1.503-4.817-3.867-4.817zm-.668 7.831c-1.362 0-2.268-1.186-2.277-3.014.01-1.81.915-3.015 2.277-3.015 1.415 0 2.294 1.178 2.294 3.015 0 1.846-.88 3.014-2.294 3.014zm11.056-7.83c-1.353 0-2.408.685-2.935 1.766h-.044v-1.608h-2.136v12.383h2.189v-4.614h.044c.51 1.046 1.564 1.696 2.918 1.696 2.338 0 3.832-1.837 3.832-4.807 0-2.98-1.503-4.817-3.868-4.817zm-.668 7.83c-1.362 0-2.267-1.186-2.276-3.014.009-1.81.914-3.015 2.276-3.015 1.415 0 2.294 1.178 2.294 3.015 0 1.846-.879 3.014-2.294 3.014zm9.246-1.924c.097 2.338 2.013 3.779 4.931 3.779 3.068 0 5.001-1.512 5.001-3.92 0-1.89-1.09-2.953-3.665-3.542l-1.459-.334c-1.555-.37-2.197-.861-2.197-1.705 0-1.055.967-1.758 2.4-1.758 1.45 0 2.443.712 2.548 1.899h2.162c-.052-2.233-1.898-3.745-4.693-3.745-2.76 0-4.72 1.521-4.72 3.771 0 1.81 1.108 2.936 3.445 3.472l1.644.386c1.6.378 2.25.906 2.25 1.82 0 1.054-1.063 1.81-2.593 1.81-1.547 0-2.716-.764-2.856-1.933h-2.198zm12.033-7.928v2.18h-1.336v1.687h1.336v5.15c0 1.811.79 2.523 2.803 2.523.466 0 .897-.035 1.134-.088v-1.67a4.24 4.24 0 01-.624.044c-.773 0-1.125-.351-1.125-1.116V22.37h1.758v-1.687H83.24v-2.18h-2.188zm9.386 11.68c2.734 0 4.51-1.819 4.51-4.842 0-3.015-1.794-4.852-4.51-4.852-2.715 0-4.508 1.846-4.508 4.852 0 3.023 1.775 4.843 4.508 4.843zm0-1.73c-1.388 0-2.285-1.126-2.285-3.112 0-1.978.906-3.111 2.285-3.111 1.39 0 2.286 1.133 2.286 3.11 0 1.987-.897 3.112-2.285 3.112zM96.354 30h2.189v-5.423c0-1.31.747-2.11 1.986-2.11.369 0 .703.053.888.124v-1.978a3.104 3.104 0 00-.686-.088c-1.098 0-1.916.65-2.232 1.785h-.044v-1.626h-2.1V30zm9.853-7.814c1.257 0 2.101.923 2.145 2.242H104c.088-1.301.976-2.242 2.206-2.242zm2.153 5.028c-.237.773-1.01 1.283-2.03 1.283-1.433 0-2.347-1.002-2.347-2.496v-.132h6.513v-.712c0-2.83-1.652-4.667-4.298-4.667-2.689 0-4.394 1.943-4.394 4.887 0 2.97 1.687 4.808 4.482 4.808 2.206 0 3.841-1.213 4.122-2.971h-2.048z" fill="#fff"></path></svg>