<svg width="24" height="24" viewBox="0 0 24 24" fill="none" xmlns="http://www.w3.org/2000/svg"><path fill-rule="evenodd" clip-rule="evenodd" d="M19.728 9.476c0 1.381.365 2.196 1.168 3.134.61.692.804 1.579.804 2.542 0 .961-.316 1.874-.949 2.615a4.99 4.99 0 01-3.19 1.555c-1.729.147-3.458.271-5.21.271a45.81 45.81 0 01-5.21-.271 4.985 4.985 0 01-3.191-1.555A3.977 3.977 0 013 15.152c0-.963.196-1.85.804-2.542.828-.938 1.17-1.752 1.17-3.134v-.469c0-1.85.46-3.06 1.41-4.244C7.798 3.036 10.062 2 12.302 2h.099c2.288 0 4.625 1.086 6.014 2.887.9 1.16 1.314 2.319 1.314 4.12v.469zM9.13 21.866c0-.553.508-.807.979-.915.55-.117 3.9-.117 4.45 0 .47.108.979.362.979.916-.028.527-.337.995-.765 1.292a3.997 3.997 0 01-1.884.804c-.376.049-.746.05-1.109 0a3.98 3.98 0 01-1.885-.805c-.428-.296-.738-.764-.765-1.291z" fill="#fff"></path></svg>