<svg xmlns="http://www.w3.org/2000/svg" width="38" height="26" viewBox="0 0 38 26" fill="none"><g clip-path="url(#rating-itv_svg__clip0_2652_22040)" fill="#fff"><path d="M5.149 5.595a2.375 2.375 0 100-4.751 2.375 2.375 0 000 4.75zM33.65 6.951l-4.75 8.142-4.75-8.142H19.4l7.125 12.893h4.75L38.4 6.951h-4.75zM.398 6.951v4.751a2.37 2.37 0 012.37 2.37v5.769h4.755v-5.765A7.133 7.133 0 00.398 6.95zM21.186 15.094h-4.499a2.37 2.37 0 01-2.37-2.37v-1.017h5l-2.63-4.756h-2.37V3.216h-4.74v9.505a7.133 7.133 0 007.124 7.124h7.124l-2.64-4.75z"></path></g><defs><clipPath id="rating-itv_svg__clip0_2652_22040"><path fill="#fff" d="M0 0h38v26H0z"></path></clipPath></defs></svg>