<svg width="45" height="22" viewBox="0 0 45 22" fill="none" xmlns="http://www.w3.org/2000/svg"><path d="M1.484 18.945h4.318V3.402H1.484v15.543zM15.018 3.402l-.966 7.26-.6-3.948a109.238 109.238 0 00-.502-3.312H7.53v15.543h3.662l.014-10.263 1.542 10.263h2.607l1.464-10.49.01 10.49h3.653V3.402h-5.464zM22.209 18.945V3.402h6.74a2.75 2.75 0 012.758 2.743v10.057a2.75 2.75 0 01-2.759 2.743H22.21zM27.245 6.2c-.171-.093-.499-.137-.975-.137V16.26c.629 0 1.016-.113 1.161-.35.145-.233.22-.864.22-1.899V7.986c0-.703-.026-1.152-.075-1.351a.635.635 0 00-.33-.435zM39.85 7.294h.275c1.55 0 2.807 1.214 2.807 2.71v6.231c0 1.497-1.256 2.71-2.807 2.71h-.276a2.834 2.834 0 01-2.295-1.15l-.249.95h-3.871V3.402h4.13v4.992a2.925 2.925 0 012.285-1.1zm-.885 7.58V11.19c0-.608-.04-1.008-.12-1.192-.082-.183-.407-.301-.635-.301-.228 0-.58.096-.648.257v6.234c.079.178.414.277.648.277.234 0 .576-.096.647-.277.072-.18.108-.62.108-1.315z" fill="#fff"></path></svg>