<svg width="21" height="22" viewBox="0 0 21 22" fill="none" xmlns="http://www.w3.org/2000/svg"><g clip-path="url(#rating-kp_svg__clip0_2652_17640)"><path fill-rule="evenodd" clip-rule="evenodd" d="M8.527 9.256c-.113.112-.22.22-.328.332 1.492-.082 2.978-.301 4.474-.317 2.225-.265 4.454-.434 6.683-.628.01 1.507.01 3.02 0 4.527-3.818-.353-7.636-.746-11.454-1.063l-.226.015c.287.2.62.312.949.424 3.572 1.354 7.16 2.672 10.731 4.026.005 1.584.016 3.168 0 4.752-4.213-2.31-8.394-4.675-12.602-7-.297-.163-.59-.332-.871-.516 1.737 1.86 3.562 3.638 5.34 5.462.656.69 1.399 1.308 1.963 2.08-1.65.025-3.296.015-4.946.004-.277-.23-.446-.556-.65-.843-1.261-1.854-2.522-3.714-3.793-5.563-.01 2.135.005 4.27-.01 6.412H-.395C-.4 14.386-.405 7.412-.39.431h4.177c.025 2.126-.02 4.256.025 6.387A608.416 608.416 0 008.163.438c1.686-.006 3.373-.01 5.059 0-.656.756-1.394 1.435-2.091 2.156-1.697 1.793-3.475 3.504-5.182 5.288C10.45 5.47 14.872 2.91 19.356.473c.01 1.59.01 3.178 0 4.767C15.743 6.57 12.15 7.963 8.527 9.261v-.005z" fill="#fff"></path></g><defs><clipPath id="rating-kp_svg__clip0_2652_17640"><path fill="#fff" d="M0 0h21v22H0z"></path></clipPath></defs></svg>