<svg width="60" height="60" viewBox="0 0 60 60" fill="none" xmlns="http://www.w3.org/2000/svg" class="css-1svmmul"><circle opacity="0.2" cx="30" cy="30" r="30" fill="#fff"></circle><path d="M33.514 25.843c2.363 1.365 3.544 2.047 3.94 2.937a3 3 0 010 2.44c-.396.891-1.577 1.573-3.94 2.937l-1.672.965c-2.362 1.364-3.544 2.047-4.513 1.945a3 3 0 01-2.114-1.22c-.573-.79-.573-2.153-.573-4.882v-1.93c0-2.728 0-4.092.573-4.88a3 3 0 012.114-1.22c.97-.103 2.15.58 4.513 1.944l1.672.964z" fill="#fff"></path></svg>