<svg width="123" height="33" viewBox="0 0 123 33" fill="none" xmlns="http://www.w3.org/2000/svg"><path d="M.548 2.047A.81.81 0 000 2.815v26.828a.81.81 0 00.54.766l14.252-14.185L.548 2.047z" fill="#00D6FF"></path><path d="M18.807 12.227L1.22 2.11a.802.802 0 00-.672-.063l14.244 14.178 4.015-3.997z" fill="#00F076"></path><path d="M1.22 30.349l17.594-10.123-4.022-4.002L.541 30.408a.8.8 0 00.68-.06z" fill="#FF3A44"></path><path d="M18.814 20.226l5.721-3.291a.814.814 0 000-1.412l-5.727-3.296-4.015 3.997 4.021 4.002z" fill="#FFD000"></path><path d="M33.04 10.145c1.74 0 2.937-.902 3.27-2.438h-1.208c-.274.864-1.02 1.37-2.058 1.37-1.423 0-2.325-1.145-2.325-2.955 0-1.794.913-2.949 2.32-2.949 1.005 0 1.81.597 2.063 1.515h1.208c-.258-1.547-1.563-2.584-3.27-2.584-2.165 0-3.551 1.563-3.551 4.018 0 2.47 1.375 4.023 3.55 4.023zm6.622-3.142l2.503-2.653h-1.386l-2.213 2.417h-.043V4.35h-1.155V10h1.155V7.395h.043L40.806 10h1.455l-2.6-2.997zm5.167 2.175c-.623 0-1.032-.322-1.032-.816 0-.484.393-.79 1.085-.838l1.391-.086v.446c0 .736-.633 1.294-1.444 1.294zm-.323.919c.742 0 1.456-.398 1.784-1.026h.026V10h1.112V6.106c0-1.133-.875-1.858-2.245-1.858-1.396 0-2.267.752-2.33 1.772h1.095c.102-.505.52-.827 1.192-.827.71 0 1.133.376 1.133 1.004v.435l-1.546.092c-1.343.075-2.1.682-2.1 1.67 0 1.015.773 1.703 1.88 1.703zM53.208 10V4.35h-1.15v2.223c-.236.28-.66.516-1.289.516-.714 0-1.096-.44-1.096-1.144V4.35H48.52v1.68c0 1.236.735 2.047 2.067 2.047.623 0 1.09-.193 1.397-.483h.075V10h1.15zm3.233-.822c-.623 0-1.031-.322-1.031-.816 0-.484.392-.79 1.085-.838l1.39-.086v.446c0 .736-.633 1.294-1.444 1.294zm-.322.919c.74 0 1.455-.398 1.783-1.026h.027V10h1.111V6.106c0-1.133-.875-1.858-2.245-1.858-1.396 0-2.266.752-2.33 1.772h1.095c.102-.505.521-.827 1.192-.827.71 0 1.134.376 1.134 1.004v.435l-1.547.092c-1.343.075-2.1.682-2.1 1.67 0 1.015.773 1.703 1.88 1.703zM61.404 10l2.61-3.97h.043V10h1.144V4.35h-1.144l-2.61 3.958h-.043V4.35H60.26V10h1.144zm-.376-8.132c0 1.015.72 1.703 1.783 1.703 1.069 0 1.789-.688 1.789-1.703h-.785c-.005.607-.392 1.069-1.004 1.069-.607 0-.994-.462-.999-1.069h-.784zm9.716 2.482h-4.7v.918h1.773V10h1.155V5.268h1.772V4.35zm3.11.832c.811 0 1.359.607 1.386 1.472h-2.825c.059-.854.628-1.472 1.439-1.472zm1.38 3.158c-.155.494-.644.827-1.305.827-.929 0-1.52-.65-1.52-1.632v-.07h3.99v-.398c0-1.713-.977-2.82-2.545-2.82-1.595 0-2.616 1.182-2.616 2.955 0 1.783 1.005 2.905 2.664 2.905 1.295 0 2.272-.735 2.433-1.767h-1.1zm6.725-3.147c.564 0 .87.263.87.73 0 .5-.328.752-.983.752h-1.074V5.193h1.187zm-.038 2.293c.763 0 1.14.28 1.14.838 0 .543-.355.833-1.01.833h-1.279v-1.67h1.15zM79.628 10h2.6c1.224 0 1.987-.634 1.987-1.627 0-.71-.484-1.225-1.214-1.322v-.043c.542-.102.961-.633.961-1.219 0-.892-.666-1.44-1.767-1.44h-2.567V10zM40.217 23.709v-1.354h-5.274v1.732h3.059l-.009.21c-.035 1.776-1.362 2.99-3.278 2.99-2.285 0-3.71-1.785-3.71-4.703 0-2.857 1.363-4.553 3.648-4.553 1.556 0 2.734.862 3.164 2.32h2.303c-.413-2.54-2.593-4.245-5.475-4.245-3.666 0-5.96 2.479-5.96 6.504 0 4.087 2.303 6.6 6.003 6.6 3.472 0 5.529-2.065 5.529-5.501zm5.757 5.476c2.733 0 4.508-1.82 4.508-4.843 0-3.015-1.792-4.852-4.508-4.852s-4.51 1.846-4.51 4.852c0 3.023 1.776 4.843 4.51 4.843zm0-1.732c-1.389 0-2.285-1.125-2.285-3.111 0-1.978.905-3.111 2.285-3.111 1.388 0 2.285 1.133 2.285 3.11 0 1.987-.897 3.112-2.285 3.112zm10.037 1.732c2.733 0 4.508-1.82 4.508-4.843 0-3.015-1.792-4.852-4.508-4.852s-4.509 1.846-4.509 4.852c0 3.023 1.775 4.843 4.509 4.843zm0-1.732c-1.389 0-2.285-1.125-2.285-3.111 0-1.978.905-3.111 2.285-3.111 1.388 0 2.285 1.133 2.285 3.11 0 1.987-.897 3.112-2.285 3.112zm10.028-.184c-1.38 0-2.259-1.108-2.259-2.954 0-1.828.88-2.988 2.26-2.988 1.396 0 2.302 1.178 2.302 2.988 0 1.82-.906 2.954-2.303 2.954zm-.009 5.247c2.716 0 4.5-1.442 4.5-3.665v-9.167h-2.144v1.6h-.035c-.537-1.073-1.609-1.759-2.936-1.759-2.382 0-3.876 1.837-3.876 4.782 0 2.9 1.53 4.702 3.832 4.702 1.336 0 2.435-.668 2.918-1.67h.053v1.573c0 1.187-.818 1.986-2.241 1.986-1.037 0-1.837-.483-2.075-1.195h-2.17c.22 1.635 1.871 2.813 4.174 2.813zM72.376 29h2.188V16.317h-2.188V29zm8.068-7.814c1.257 0 2.1.923 2.145 2.242h-4.35c.087-1.301.975-2.242 2.205-2.242zm2.154 5.028c-.238.773-1.011 1.283-2.03 1.283-1.433 0-2.347-1.002-2.347-2.496v-.132h6.512v-.712c0-2.83-1.652-4.667-4.297-4.667-2.69 0-4.395 1.943-4.395 4.887 0 2.97 1.688 4.808 4.482 4.808 2.207 0 3.841-1.213 4.123-2.971h-2.048zm7.374-9.897V29h2.267v-4.192h2.567c2.566 0 4.368-1.714 4.368-4.245 0-2.532-1.75-4.246-4.272-4.246h-4.93zm2.267 1.855h2.066c1.626 0 2.566.87 2.566 2.39 0 1.539-.95 2.418-2.575 2.418h-2.057v-4.808zM100.677 29h2.188V16.317h-2.188V29zm7.453-1.503c-.949 0-1.582-.483-1.582-1.248 0-.738.606-1.213 1.661-1.283l2.153-.132v.712c0 1.125-.993 1.951-2.232 1.951zm-.659 1.652c1.195 0 2.364-.624 2.9-1.634h.044V29h2.109v-6.416c0-1.872-1.503-3.094-3.814-3.094-2.373 0-3.858 1.248-3.955 2.989h2.03c.141-.774.8-1.275 1.837-1.275 1.081 0 1.74.563 1.74 1.538v.668l-2.461.14c-2.267.141-3.542 1.135-3.542 2.787 0 1.679 1.31 2.812 3.112 2.812zm7.822 3.314c2.127 0 3.155-.782 3.955-3.094l3.366-9.685h-2.302l-2.198 7.453h-.035l-2.197-7.453h-2.391l3.314 9.325c.008.026-.123.492-.123.518-.246.862-.712 1.204-1.618 1.204-.131 0-.518-.008-.632-.035v1.732c.114.026.738.035.861.035z" fill="#fff"></path></svg>