<svg width="40" height="40" viewBox="0 0 40 40" fill="none" xmlns="http://www.w3.org/2000/svg"><path d="M20.022 1.667C11.48 1.667 3.857 7.8 2.07 16.15c-.893 4.173-.291 8.61 1.7 12.386a18.5 18.5 0 008.821 8.235 18.51 18.51 0 0012.514.852 18.477 18.477 0 009.877-6.993c5.006-7.015 4.337-16.869-1.553-23.155a18.471 18.471 0 00-13.407-5.81zM28.83 20.98L23.824 26.1c-1.267 1.296-3.27-.668-2.008-1.958l2.526-2.583H12.375c-.85 0-1.56-.708-1.56-1.556 0-.849.71-1.558 1.56-1.558h11.907l-2.575-2.571c-1.28-1.278.704-3.26 1.984-1.982l5.126 5.12a1.4 1.4 0 01.012 1.97z" fill="#fff"></path></svg>