<svg width="24" height="24" viewBox="0 0 24 24" fill="currentColor" xmlns="http://www.w3.org/2000/svg"><path d="M16.86 14.969c-1.159 0-2.179.57-2.82 1.435L8.5 13.567c.092-.313.156-.638.156-.981a3.49 3.49 0 00-.26-1.314l5.799-3.49a3.493 3.493 0 002.664 1.25 3.52 3.52 0 003.516-3.516A3.52 3.52 0 0016.859 2a3.52 3.52 0 00-3.515 3.516c0 .446.092.87.244 1.264l-5.816 3.5a3.493 3.493 0 00-2.631-1.21 3.52 3.52 0 00-3.516 3.516 3.52 3.52 0 003.516 3.516 3.507 3.507 0 002.853-1.477l5.522 2.828c-.102.328-.172.67-.172 1.031A3.52 3.52 0 0016.859 22a3.52 3.52 0 003.516-3.516 3.52 3.52 0 00-3.516-3.515z" fill="#fff"></path></svg>