<svg width="121" height="33" viewBox="0 0 121 33" fill="none" xmlns="http://www.w3.org/2000/svg"><path opacity="0.5" fill-rule="evenodd" clip-rule="evenodd" d="M7.857 2C2.103 2 0 4.104 0 9.854v12.292C0 27.894 2.104 30 7.857 30H20.14c5.752 0 7.86-2.104 7.86-7.854V9.854C28 4.106 25.896 2 20.143 2H7.857z" fill="#1D1F1E"></path><path d="M16.065 23.22h-3.13a.5.5 0 01-.499-.5v-2.075a.5.5 0 01.5-.5h3.129a.5.5 0 01.5.5v2.075a.5.5 0 01-.5.5z" fill="#fff"></path><path d="M16.065 20.145H14.5v3.074h1.565a.5.5 0 00.499-.5v-2.074a.5.5 0 00-.5-.5z" fill="#fff"></path><path d="M18.029 23.22H10.97a.5.5 0 010-1h7.058a.5.5 0 010 1z" fill="#fff"></path><path d="M18.029 22.22H14.5v1h3.529a.5.5 0 000-1zM22.5 21.144h-16a.5.5 0 01-.5-.5v-1.997a.5.5 0 01.5-.5h16a.5.5 0 01.5.5v1.998a.5.5 0 01-.5.499z" fill="#fff"></path><path d="M22.5 18.148h-8v2.996h8a.5.5 0 00.5-.5v-1.997a.5.5 0 00-.5-.5z" fill="#fff"></path><path d="M22.5 19.147h-16a.5.5 0 01-.5-.5v-8.366a.5.5 0 01.5-.5h16a.5.5 0 01.5.5v8.367a.5.5 0 01-.5.499z" fill="#555"></path><path d="M43.052 10V2.25h-6.284V10h1.209V3.297h3.878V10h1.197zm4.34-5.742c-.816 0-1.466.414-1.8 1.064h-.02V4.35h-1.123v7.52h1.16v-2.8h.027c.322.63.966 1.027 1.778 1.027 1.417 0 2.358-1.134 2.358-2.922 0-1.789-.946-2.917-2.38-2.917zm-.306 4.856c-.892 0-1.483-.763-1.483-1.94 0-1.165.597-1.938 1.483-1.938.918 0 1.493.757 1.493 1.939 0 1.187-.575 1.939-1.493 1.939zm4.829.886l2.61-3.97h.043V10h1.144V4.35h-1.144l-2.61 3.958h-.043V4.35H50.77V10h1.145zm6.751-2.573l.156-2.159h1.74V10h1.155V4.35H57.8l-.193 3.029c-.064.983-.258 1.638-.806 1.638-.145 0-.252-.027-.306-.043v1.02c.07.027.204.06.392.06 1.268 0 1.67-1.026 1.778-2.627zm6.73 2.68c1.617 0 2.68-1.111 2.68-2.932 0-1.816-1.069-2.927-2.68-2.927-1.611 0-2.68 1.111-2.68 2.927 0 1.82 1.063 2.932 2.68 2.932zm0-.956c-.908 0-1.498-.72-1.498-1.976 0-1.252.59-1.971 1.498-1.971s1.498.72 1.498 1.97c0 1.258-.585 1.977-1.498 1.977zm8.717-2.148l2.315-2.653h-1.37l-2.051 2.417h-.043V4.35H71.82v2.417h-.038L69.731 4.35h-1.38l2.33 2.674L68.286 10h1.418l2.078-2.605h.038V10h1.144V7.395h.043L75.085 10h1.44l-2.412-2.997zm5.323-1.82c.811 0 1.359.606 1.386 1.47h-2.825c.059-.853.628-1.47 1.439-1.47zm1.38 3.157c-.155.494-.644.827-1.305.827-.929 0-1.52-.65-1.52-1.632v-.07h3.99v-.398c0-1.713-.977-2.82-2.545-2.82-1.595 0-2.616 1.182-2.616 2.955 0 1.783 1.005 2.905 2.664 2.905 1.295 0 2.272-.735 2.434-1.767h-1.102zM86.687 10h1.155V4.35h-1.155v2.277H84.13V4.35h-1.154V10h1.154V7.54h2.557V10zm3.556 0l2.61-3.97h.043V10h1.144V4.35h-1.144l-2.61 3.958h-.043V4.35h-1.144V10h1.144zm7.186-2.83c-.655 0-1.085-.382-1.085-.919 0-.612.425-.988 1.085-.988h1.026v1.906H97.43zM98.455 10h1.139V4.35H97.37c-1.321 0-2.18.73-2.18 1.906 0 .79.483 1.375 1.267 1.606L94.916 10h1.31l1.37-1.939h.86V10zm8.379-.918h-2.562v-.043c.258-.366.397-.946.44-1.612l.156-2.159h1.966v3.814zm-3.212 2.4V10h4.168v1.482h1.074v-2.4h-.875V4.35h-4.12l-.204 3.029c-.054.763-.242 1.445-.655 1.703h-.457v2.4h1.069zm7.756-4.055l.156-2.159h1.74V10h1.155V4.35h-3.916l-.193 3.029c-.065.983-.258 1.638-.806 1.638-.145 0-.252-.027-.306-.043v1.02c.07.027.204.06.392.06 1.268 0 1.671-1.026 1.778-2.627zm6.44-.258c-.655 0-1.085-.38-1.085-.918 0-.612.424-.988 1.085-.988h1.026v1.906h-1.026zM118.844 10h1.138V4.35h-2.223c-1.321 0-2.181.73-2.181 1.906 0 .79.484 1.375 1.268 1.606L115.304 10h1.311l1.369-1.939h.86V10zM35.598 25.432c.096 2.338 2.012 3.779 4.93 3.779 3.068 0 5.001-1.512 5.001-3.92 0-1.89-1.09-2.953-3.665-3.542l-1.459-.334c-1.555-.37-2.197-.861-2.197-1.705 0-1.055.967-1.758 2.4-1.758 1.45 0 2.443.712 2.548 1.899h2.162c-.052-2.233-1.898-3.745-4.693-3.745-2.76 0-4.72 1.521-4.72 3.771 0 1.81 1.108 2.936 3.446 3.472l1.643.386c1.6.378 2.25.906 2.25 1.82 0 1.054-1.063 1.81-2.593 1.81-1.547 0-2.716-.764-2.856-1.933h-2.197zM47.023 29h2.189v-5.704c0-1.125.738-1.942 1.793-1.942 1.02 0 1.652.641 1.652 1.678V29h2.127v-5.757c0-1.116.72-1.89 1.776-1.89 1.072 0 1.67.65 1.67 1.793V29h2.188v-6.39c0-1.863-1.204-3.102-3.041-3.102-1.345 0-2.452.72-2.9 1.872h-.053c-.343-1.195-1.283-1.872-2.602-1.872-1.265 0-2.25.712-2.654 1.793h-.044v-1.617h-2.1V29zm18.554-1.503c-.95 0-1.582-.483-1.582-1.248 0-.738.607-1.213 1.661-1.283l2.154-.132v.712c0 1.125-.994 1.951-2.233 1.951zm-.659 1.652c1.195 0 2.364-.624 2.9-1.634h.044V29h2.11v-6.416c0-1.872-1.503-3.094-3.815-3.094-2.373 0-3.858 1.248-3.955 2.989h2.03c.141-.774.8-1.275 1.837-1.275 1.081 0 1.74.563 1.74 1.538v.668l-2.46.14c-2.268.141-3.542 1.135-3.542 2.787 0 1.679 1.31 2.812 3.111 2.812zm6.82-.149h2.189v-5.423c0-1.31.747-2.11 1.986-2.11.37 0 .703.053.888.124v-1.978a3.108 3.108 0 00-.686-.088c-1.098 0-1.916.65-2.232 1.785h-.044v-1.626h-2.1V29zm6.794-11.496v2.18h-1.336v1.687h1.336v5.15c0 1.811.791 2.523 2.804 2.523.466 0 .896-.035 1.134-.088v-1.67c-.14.026-.422.044-.624.044-.774 0-1.125-.351-1.125-1.116V21.37h1.757v-1.687h-1.757v-2.18h-2.189zM93.157 29V18.233h3.788v-1.916h-9.843v1.916h3.796V29h2.26zm11.479 0l4.412-12.683h-2.444l-3.216 10.248h-.053l-3.217-10.248h-2.496L102.034 29h2.602z" fill="#fff"></path></svg>